<svg version="1.1" xmlns="http://www.w3.org/2000/svg" width="500" height="500">
<path d="M0 0 C1.49466797 0.24363281 1.49466797 0.24363281 3.01953125 0.4921875 C31.69225603 5.70541019 59.90948899 16.17537075 85 31 C85 31.66 85 32.32 85 33 C85.94875 33.309375 86.8975 33.61875 87.875 33.9375 C91 35 91 35 93 36 C93 36.66 93 37.32 93 38 C93.70125 38.2475 94.4025 38.495 95.125 38.75 C98.39514548 40.17180238 101.141122 41.87246288 104 44 C104 44.66 104 45.32 104 46 C105.65 46.66 107.3 47.32 109 48 C109 48.66 109 49.32 109 50 C109.5775 50.268125 110.155 50.53625 110.75 50.8125 C113.05550043 52.02929189 115.02056192 53.30333879 117 55 C117 55.66 117 56.32 117 57 C117.66 57 118.32 57 119 57 C119 57.66 119 58.32 119 59 C119.598125 59.268125 120.19625 59.53625 120.8125 59.8125 C122.99847854 60.99917406 124.41332594 62.09599113 126 64 C126 64.66 126 65.32 126 66 C126.66 66 127.32 66 128 66 C128 66.66 128 67.32 128 68 C128.66 68 129.32 68 130 68 C153 92.70190275 153 92.70190275 153 101 C155.7710953 98.48391347 157.61416225 95.64451995 159.625 92.5 C167.50821925 80.57520277 177.1543023 70.30393732 187 60 C187.75667969 59.19433594 188.51335937 58.38867188 189.29296875 57.55859375 C191 56 191 56 193 56 C193 55.34 193 54.68 193 54 C195.1171875 52.0546875 195.1171875 52.0546875 197.875 49.875 C198.77992188 49.15054688 199.68484375 48.42609375 200.6171875 47.6796875 C203 46 203 46 205 46 C205 45.34 205 44.68 205 44 C210.41176471 40 210.41176471 40 213 40 C213 39.34 213 38.68 213 38 C215.97 37.01 215.97 37.01 219 36 C219 35.34 219 34.68 219 34 C220.155 33.443125 221.31 32.88625 222.5 32.3125 C225.27253641 30.93343943 227.86550784 29.47049362 230.4375 27.75 C251.92079532 14.17288851 278.0719088 6.32930335 302.6875 0.6875 C303.8019751 0.42972778 303.8019751 0.42972778 304.93896484 0.16674805 C309.02003219 -0.72683119 312.82456151 -1.36068942 317 -1 C320 1 320 1 321 4 C321.09561092 5.58968874 321.13490013 7.18306777 321.14044189 8.77561951 C321.14615204 9.75841888 321.15186218 10.74121826 321.15774536 11.75379944 C321.15886322 12.83076584 321.15998108 13.90773224 321.16113281 15.01733398 C321.16609772 16.15251465 321.17106262 17.28769531 321.17617798 18.45727539 C321.19080812 22.22022096 321.19760236 25.98312439 321.203125 29.74609375 C321.20887488 32.35539247 321.21463263 34.96469118 321.22039795 37.57398987 C321.2299672 42.34758574 321.23586559 47.12117248 321.2388947 51.89477676 C321.24337781 58.92094422 321.26093957 65.94691737 321.2898953 72.97302574 C321.3141077 79.05936593 321.32183851 85.1456258 321.32357025 91.2320118 C321.32660312 93.82163616 321.33465286 96.41125959 321.34775543 99.00085258 C321.36475577 102.61847663 321.36295037 106.23562402 321.35644531 109.85327148 C321.3656601 110.92821365 321.37487488 112.00315582 321.3843689 113.110672 C321.37601517 114.5891008 321.37601517 114.5891008 321.36749268 116.09739685 C321.36895924 116.95261146 321.3704258 117.80782606 321.3719368 118.68895626 C320.91335108 121.53839644 319.95425722 122.90350994 318 125 C315.51074219 125.92553711 315.51074219 125.92553711 312.546875 126.52734375 C311.45995361 126.75945557 310.37303223 126.99156738 309.25317383 127.23071289 C307.51910278 127.58057251 307.51910278 127.58057251 305.75 127.9375 C295.86633044 130.06945713 286.51811511 132.58097835 277 136 C275.09956605 136.60923943 273.19910428 137.21841095 271.296875 137.82202148 C264.64721571 139.95156812 258.38323391 142.52425895 252.09375 145.546875 C249.20042404 146.90586144 246.28938604 148.08868731 243.3125 149.25 C237.77940268 151.51522776 232.59597608 154.29080027 227.375 157.1875 C226.58005127 157.62803711 225.78510254 158.06857422 224.96606445 158.52246094 C220.70880568 160.8873098 220.70880568 160.8873098 217 164 C217.71542969 163.68546875 218.43085938 163.3709375 219.16796875 163.046875 C225.65110074 160.26239916 232.11117053 157.93520337 238.89453125 155.9921875 C242.08282094 155.03207239 242.08282094 155.03207239 245.3515625 153.53515625 C249.36908856 151.84469828 253.35786178 150.67711538 257.5625 149.5625 C259.02233366 149.16870291 260.48196242 148.77414564 261.94140625 148.37890625 C262.731521 148.16685547 263.52163574 147.95480469 264.33569336 147.73632812 C266.26896831 147.2020335 268.19620504 146.64573532 270.11938477 146.07617188 C278.5645492 143.58247586 287.02703022 141.57344685 295.64868164 139.81738281 C297.80232691 139.37707984 299.95286498 138.9234268 302.10351562 138.46875 C303.53368676 138.17366666 304.96402065 137.8793708 306.39453125 137.5859375 C307.64081299 137.3286084 308.88709473 137.0712793 310.17114258 136.80615234 C317.38314067 135.4813338 324.71657194 134.81388572 332 134 C331.99111755 132.73101868 331.98223511 131.46203735 331.9730835 130.15460205 C331.89206143 118.2063879 331.83206514 106.25822935 331.79275131 94.30980301 C331.77186031 88.1667055 331.74351455 82.02382943 331.69824219 75.88085938 C331.65483917 69.95457528 331.6308743 64.02850442 331.62049103 58.10207367 C331.61308975 55.83898307 331.5986371 53.57590438 331.57707977 51.31290436 C331.54812015 48.14747224 331.54404097 44.9829257 331.54589844 41.81738281 C331.53151733 40.87798859 331.51713623 39.93859436 331.50231934 38.97073364 C331.54252719 32.65478679 331.54252719 32.65478679 333.80963135 29.40985107 C336.9858629 27.36544021 339.30100772 27.6036794 343 28 C345.375 28.8125 345.375 28.8125 347 30 C347.95559187 32.8667756 348.12768083 34.65513458 348.13371277 37.63049316 C348.13797775 38.58108109 348.14224274 39.53166901 348.14663696 40.51106262 C348.14618378 41.55219711 348.14573059 42.5933316 348.14526367 43.66601562 C348.15030159 45.31267464 348.15030159 45.31267464 348.15544128 46.99259949 C348.16496004 50.63049442 348.16689474 54.26834338 348.16796875 57.90625 C348.17118024 60.42826354 348.17454422 62.9502769 348.17805481 65.47229004 C348.18404808 70.76164253 348.18593721 76.0509778 348.18530273 81.34033203 C348.18470153 87.4564286 348.1952626 93.5724371 348.2110464 99.68851137 C348.22568681 105.57088246 348.22929114 111.45322657 348.22869301 117.33561707 C348.22987613 119.83953715 348.23431635 122.34345783 348.24202538 124.84736633 C348.25178131 128.34298092 348.24896479 131.83836639 348.24291992 135.33398438 C348.24853943 136.37511887 348.25415894 137.41625336 348.25994873 138.48893738 C348.253657 139.91481926 348.253657 139.91481926 348.24723816 141.36950684 C348.24778293 142.19614586 348.24832769 143.02278488 348.24888897 143.87447357 C348 146 348 146 346 149 C341.9947565 150.53392304 338.32655292 151.10998991 334.0625 151.4375 C327.42589634 151.96592053 320.96866973 153.21902783 314.44970703 154.52001953 C311.78120481 155.04286938 309.10799466 155.5355888 306.43359375 156.02734375 C274.43510384 162.02185929 243.66590141 171.63199495 214 185 C213.26088379 185.32967773 212.52176758 185.65935547 211.76025391 185.99902344 C195.48606481 193.29039312 179.13915234 201.40857099 165.1015625 212.5 C161.07071523 215.59794376 158.12237551 217 153 217 C150.48014799 216.21593646 148.36689945 215.20760176 146 214 C146 213.34 146 212.68 146 212 C145.25234375 211.72285156 144.5046875 211.44570313 143.734375 211.16015625 C141.2557729 210.10852079 139.41508849 209.00763648 137.25 207.4375 C125.11195587 199.18523238 111.42480202 193.16385959 98.14941406 187.00048828 C96.21777578 186.10136815 94.29149764 185.19201164 92.3671875 184.27734375 C79.39684881 178.16722034 65.9609385 173.51591333 52.375 169 C51.57908447 168.73509766 50.78316895 168.47019531 49.96313477 168.19726562 C38.41229663 164.36284694 26.8899915 160.64828743 15 158 C13.85265381 157.73848145 13.85265381 157.73848145 12.68212891 157.47167969 C1.63043608 154.98890716 -9.42430876 153.2928917 -20.69213867 152.12646484 C-26.60758316 151.47403717 -32.630375 150.73194052 -38 148 C-40.12778747 144.8083188 -40.25372979 143.99450149 -40.27415466 140.33154297 C-40.28412979 139.37254089 -40.29410492 138.41353882 -40.30438232 137.42547607 C-40.305047 136.37499084 -40.30571167 135.32450562 -40.30639648 134.2421875 C-40.31472 133.13466125 -40.32304352 132.02713501 -40.33161926 130.88604736 C-40.35576611 127.21566278 -40.36449621 123.54545565 -40.37109375 119.875 C-40.38005488 117.33056584 -40.38917662 114.78613225 -40.39845276 112.24169922 C-40.41495695 106.90525702 -40.42267897 101.56888166 -40.42553711 96.23242188 C-40.42917583 90.06161447 -40.45909573 83.8913034 -40.50094169 77.72064781 C-40.53977869 71.78594827 -40.55112885 65.85139847 -40.55226326 59.91656494 C-40.55648119 57.39029239 -40.56897782 54.86402001 -40.58978081 52.33782959 C-40.61651911 48.81071208 -40.61192171 45.28497825 -40.59936523 41.7578125 C-40.61419952 40.70732727 -40.62903381 39.65684204 -40.64431763 38.57452393 C-40.61761563 35.95180633 -40.56365044 33.56131556 -40 31 C-37.58753967 28.87841797 -37.58753967 28.87841797 -35 28 C-34.34 27.731875 -33.68 27.46375 -33 27.1875 C-30.14631169 26.91996672 -28.49136148 27.62319497 -26 29 C-24.22545776 31.83750091 -23.75123497 33.99645893 -23.75949097 37.31536865 C-23.75674164 38.17069687 -23.75399231 39.02602509 -23.75115967 39.90727234 C-23.75835022 40.83731583 -23.76554077 41.76735931 -23.77294922 42.72558594 C-23.77265717 43.71128067 -23.77236511 44.6969754 -23.77206421 45.71253967 C-23.77345731 48.96990773 -23.78901777 52.22704691 -23.8046875 55.484375 C-23.8084177 57.74310176 -23.81126464 60.00183013 -23.81326294 62.26055908 C-23.82089886 68.2052253 -23.84054709 74.14979378 -23.8626709 80.09442139 C-23.88313015 86.16059039 -23.89226483 92.22677519 -23.90234375 98.29296875 C-23.92379294 110.19535544 -23.95792847 122.09766959 -24 134 C-23.21745346 134.05786682 -22.43490692 134.11573364 -21.62864685 134.175354 C-15.94913138 134.61770468 -10.3841257 135.14576607 -4.78515625 136.234375 C-3.53162354 136.47631592 -2.27809082 136.71825684 -0.98657227 136.9675293 C0.32156663 137.22777643 1.62958875 137.48861118 2.9375 137.75 C3.61032013 137.88250153 4.28314026 138.01500305 4.97634888 138.15151978 C13.66005069 139.86195173 22.32095101 141.66267811 30.9375 143.6875 C31.7514624 143.87731445 32.5654248 144.06712891 33.40405273 144.26269531 C37.79651976 145.33006712 41.94844475 146.67718628 46.15795898 148.31958008 C48.74517333 149.27525488 51.37478258 149.89227924 54.0625 150.5 C58.64272583 151.60222392 62.67998072 153.1052547 67 155 C69.07845993 155.64102035 71.16246147 156.2641926 73.25 156.875 C79.44694526 158.72762095 85.19590323 161.16192462 91 164 C91.33 163.67 91.66 163.34 92 163 C89.50136876 161.58087449 87.00115719 160.1646616 84.5 158.75 C83.80390625 158.35425781 83.1078125 157.95851563 82.390625 157.55078125 C75.84315395 153.8526726 69.32760051 150.3936035 62.24609375 147.83984375 C59.56954872 146.83904865 56.94537133 145.73558041 54.3125 144.625 C36.639311 137.23359137 19.01720849 131.23113688 0.32714844 127.00415039 C-1.2076416 126.65404907 -1.2076416 126.65404907 -2.7734375 126.296875 C-3.68528809 126.09416992 -4.59713867 125.89146484 -5.53662109 125.68261719 C-7.92064893 125.02198866 -9.88179992 124.27389923 -12 123 C-13.21486052 120.57027897 -13.13109624 119.01577657 -13.14044189 116.29994202 C-13.14900711 114.81301598 -13.14900711 114.81301598 -13.15774536 113.29605103 C-13.15886322 112.20456757 -13.15998108 111.11308411 -13.16113281 109.98852539 C-13.16609772 108.84213089 -13.17106262 107.69573639 -13.17617798 106.51460266 C-13.19082562 102.70894784 -13.19760537 98.90333467 -13.203125 95.09765625 C-13.20887358 92.46211241 -13.21463135 89.82656858 -13.22039795 87.19102478 C-13.2299715 82.36787107 -13.23586719 77.5447264 -13.2388947 72.72156435 C-13.24337802 65.61783708 -13.26093851 58.51430197 -13.2898953 51.41063315 C-13.31409184 45.26182118 -13.32183777 39.11308875 -13.32357025 32.96423149 C-13.32660557 30.34586986 -13.33466342 27.72750921 -13.34775543 25.10917854 C-13.36473445 21.45292558 -13.36295562 17.79714509 -13.35644531 14.14086914 C-13.3656601 13.05140991 -13.37487488 11.96195068 -13.3843689 10.83947754 C-13.37879974 9.84537369 -13.37323059 8.85126984 -13.36749268 7.82704163 C-13.36895924 6.96223207 -13.3704258 6.0974225 -13.3719368 5.20640659 C-12.91767074 2.5116057 -12.11952959 1.66808426 -10 0 C-6.74871282 -1.62564359 -3.4736944 -0.57116051 0 0 Z M3 18 C3 48.36 3 78.72 3 110 C8.67878043 111.89292681 13.98260211 113.56627173 19.75 114.9375 C29.43545405 117.29626422 38.85487083 119.98897843 48 124 C50.16421263 124.75705227 52.33123876 125.50607855 54.5 126.25 C81.47193492 135.87272599 107.41930254 151.55418387 128.9375 170.4375 C131.59011923 173.21390754 131.59011923 173.21390754 134 173 C134 173.66 134 174.32 134 175 C135.64873805 176.70682481 135.64873805 176.70682481 137.75 178.4375 C138.44609375 179.03433594 139.1421875 179.63117188 139.859375 180.24609375 C141.8669308 181.89097068 143.91915592 183.44971127 146 185 C146.18715059 177.32343062 146.32839635 169.64710375 146.41449738 161.96875763 C146.45586954 158.40135398 146.51176775 154.8355348 146.60351562 151.26904297 C147.24561383 128.43995515 147.24561383 128.43995515 138 108 C137.28075931 106.86849432 136.56825427 105.73267693 135.86279297 104.5925293 C126.42847504 89.56315388 113.86654194 75.12747193 100 64 C99.27039063 63.39414062 98.54078125 62.78828125 97.7890625 62.1640625 C95.22497552 60.06466442 92.62354427 58.0246119 90 56 C89.01773438 55.23816406 88.03546875 54.47632813 87.0234375 53.69140625 C72.8189306 42.97188295 56.62098942 34.3209261 40 28 C39.02135986 27.62584961 39.02135986 27.62584961 38.02294922 27.24414062 C30.18832372 24.27800524 22.31222199 21.67722658 14.1875 19.625 C13.52379395 19.45726074 12.86008789 19.28952148 12.17626953 19.11669922 C8.9785734 18.34815778 6.31982881 18 3 18 Z M225 51 C224.20851563 51.52722656 223.41703125 52.05445313 222.6015625 52.59765625 C221.02255495 53.66801117 219.49997813 54.82144576 218 56 C218 56.66 218 57.32 218 58 C217.443125 58.268125 216.88625 58.53625 216.3125 58.8125 C213.78774666 60.10899496 211.36285516 61.42476323 209 63 C209 63.66 209 64.32 209 65 C208.34 65 207.68 65 207 65 C207 65.66 207 66.32 207 67 C206.34 67 205.68 67 205 67 C205 67.66 205 68.32 205 69 C204.40396973 69.27223389 203.80793945 69.54446777 203.19384766 69.82495117 C199.68017291 71.70691384 197.16305794 74.49950145 194.375 77.3125 C193.76124512 77.92899414 193.14749023 78.54548828 192.51513672 79.18066406 C188.44899123 83.33895716 184.67286313 87.64196883 181.125 92.25 C180.7026709 92.79825439 180.2803418 93.34650879 179.84521484 93.91137695 C177.64175862 96.65871417 177.64175862 96.65871417 177 100 C176.34 100 175.68 100 175 100 C172.7226499 102.81509993 172.7226499 102.81509993 173 106 C172.34 106 171.68 106 171 106 C170.43410156 107.13179688 169.86820313 108.26359375 169.28515625 109.4296875 C166.85677083 114.28645833 164.42838542 119.14322917 162 124 C161.90871707 125.94044277 161.88247752 127.8840756 161.88647461 129.82666016 C161.88655014 131.04777496 161.88662567 132.26888977 161.88670349 133.52700806 C161.89181048 134.86435995 161.89702648 136.20171143 161.90234375 137.5390625 C161.9042086 138.90383859 161.90563219 140.26861534 161.90663147 141.63339233 C161.91045137 145.22715093 161.92027717 148.82086917 161.93133545 152.41461182 C161.94156089 156.08108982 161.94613152 159.74757435 161.95117188 163.4140625 C161.9618999 170.60939341 161.97897001 177.80469105 162 185 C163.11976557 184.0442424 164.23895851 183.08781389 165.35791016 182.13110352 C165.98122223 181.59856461 166.6045343 181.0660257 167.24673462 180.51734924 C169.33793671 178.70753543 171.35493175 176.82615117 173.375 174.9375 C187.18711662 162.47290695 202.53695461 151.63863057 219 143 C220.48630135 142.19516218 221.97192258 141.38906771 223.45703125 140.58203125 C231.51005867 136.23475724 239.4236038 132.16862351 248.046875 129.0703125 C250.98291011 128.00619395 253.82368635 126.80661577 256.6875 125.5625 C272.35142423 119.0273556 288.48525782 115.12868555 305 111 C305 80.31 305 49.62 305 18 C278.69984674 18 245.84891173 36.40576179 225 51 Z M212 165 C211.67 165.66 211.34 166.32 211 167 C211.99 166.67 212.98 166.34 214 166 C213.34 165.67 212.68 165.34 212 165 Z " fill="#974009" transform="translate(96,245)"/>
<path d="M0 0 C3.6467202 4.39476537 5.14445695 8.03247039 5.0625 13.6875 C5.05347656 14.49574219 5.04445313 15.30398437 5.03515625 16.13671875 C5.02355469 16.75160156 5.01195312 17.36648437 5 18 C5.804375 18.04125 6.60875 18.0825 7.4375 18.125 C13.01436617 19.4947566 17.9593389 22.24566507 21.4296875 26.9296875 C23.24692826 30.33867199 23.98547362 32.71915657 24.1875 36.625 C25.16106628 40.66904453 25.91258228 40.93062977 29.3125 43.0625 C30.12460937 43.55621094 30.93671875 44.04992187 31.7734375 44.55859375 C35.00784496 46.652447 36.37840827 48.49736186 38 52 C38.32573203 54.03650948 38.61430288 56.07914829 38.875 58.125 C39.47772623 62.95581417 39.47772623 62.95581417 42.75 66.5 C43.8225 66.995 44.895 67.49 46 68 C48.0340906 69.28072371 50.04402816 70.60287726 52 72 C52 72.66 52 73.32 52 74 C52.66 74 53.32 74 54 74 C54 74.66 54 75.32 54 76 C54.55945313 76.268125 55.11890625 76.53625 55.6953125 76.8125 C59.03924427 78.53547501 62.18153257 80.56522418 65.3671875 82.5625 C70.91468596 85.59140124 76.71613745 86.60200249 82.875 87.625 C83.65875 87.7590625 84.4425 87.893125 85.25 88.03125 C87.16595474 88.35836422 89.08288282 88.67976884 91 89 C91 89.66 91 90.32 91 91 C91.66 91 92.32 91 93 91 C93.96460519 93.89381556 94.08042976 95.44963045 93.94921875 98.4296875 C93.91143311 99.30085205 93.87364746 100.1720166 93.8347168 101.06958008 C93.78613525 101.99536865 93.73755371 102.92115723 93.6875 103.875 C93.61366089 105.30138794 93.61366089 105.30138794 93.53833008 106.7565918 C91.65929452 139.80121562 80.01885793 172.00817106 61 199 C60.49210938 199.75539062 59.98421875 200.51078125 59.4609375 201.2890625 C58.36385453 202.89940067 57.19142551 204.45815522 56 206 C55.34 206 54.68 206 54 206 C53.71125 206.598125 53.4225 207.19625 53.125 207.8125 C52 210 52 210 50 213 C49.34 213 48.68 213 48 213 C48 213.66 48 214.32 48 215 C47.34 215 46.68 215 46 215 C45.731875 215.639375 45.46375 216.27875 45.1875 216.9375 C44 219 44 219 41 220 C41 220.66 41 221.32 41 222 C40.34 222 39.68 222 39 222 C39 222.66 39 223.32 39 224 C38.34 224 37.68 224 37 224 C37 224.66 37 225.32 37 226 C35.3828125 227.35693359 35.3828125 227.35693359 33.125 228.8984375 C32.30386719 229.46046875 31.48273438 230.0225 30.63671875 230.6015625 C29.33154297 231.47941406 29.33154297 231.47941406 28 232.375 C27.16082031 232.9525 26.32164062 233.53 25.45703125 234.125 C12.38768193 243 12.38768193 243 7 243 C7 243.66 7 244.32 7 245 C6.34 245 5.68 245 5 245 C4.649375 246.258125 4.29875 247.51625 3.9375 248.8125 C0.49153197 259.1504041 -6.31598398 268.77063135 -16 274 C-21.2582423 274.65728029 -24.46139393 273.65674502 -29 271 C-29 270.34 -29 269.68 -29 269 C-29.66 269 -30.32 269 -31 269 C-33.53057488 263.91192923 -35.31574573 258.95612432 -36.6875 253.4375 C-39.21922254 244.13088795 -43.93429343 235.34350007 -49.77734375 227.6640625 C-51 226 -51 226 -51 224 C-51.66 224 -52.32 224 -53 224 C-54.3302109 222.48772933 -55.59027591 220.91330976 -56.8125 219.3125 C-59.08958516 216.38007886 -61.30454159 213.55643764 -64 211 C-64.99 210.01 -64.99 210.01 -66 209 C-66 208.34 -66 207.68 -66 207 C-66.66 207 -67.32 207 -68 207 C-68 206.34 -68 205.68 -68 205 C-68.66 205 -69.32 205 -70 205 C-70 204.34 -70 203.68 -70 203 C-70.556875 202.773125 -71.11375 202.54625 -71.6875 202.3125 C-74.66159588 200.62449964 -76.72008865 198.53323483 -79 196 C-79 195.34 -79 194.68 -79 194 C-79.66 194 -80.32 194 -81 194 C-81 193.34 -81 192.68 -81 192 C-81.66 192 -82.32 192 -83 192 C-86.20802796 188.50966558 -89.07395076 184.7281135 -92 181 C-92.56589844 180.28714844 -93.13179687 179.57429687 -93.71484375 178.83984375 C-107.22921281 161.38229008 -112.0109501 141.91311299 -109.69140625 120.09765625 C-109.24858368 117.67976666 -108.6752052 115.36321821 -108 113 C-107.75507813 112.06027344 -107.51015625 111.12054688 -107.2578125 110.15234375 C-104.946276 102.22561461 -101.24424381 95.40206387 -96 89 C-95.34 89 -94.68 89 -94 89 C-93.75507813 88.42121094 -93.51015625 87.84242187 -93.2578125 87.24609375 C-89.63363504 80.77434829 -81.6653219 75.13662207 -75 72 C-74.01 72 -73.02 72 -72 72 C-72 71.34 -72 70.68 -72 70 C-71.34 70 -70.68 70 -70 70 C-69.9175 69.05125 -69.835 68.1025 -69.75 67.125 C-68.88758612 61.00061157 -66.41440918 55.12161377 -63 50 C-62.34 50 -61.68 50 -61 50 C-61 49.34 -61 48.68 -61 48 C-60.34 48 -59.68 48 -59 48 C-59 47.34 -59 46.68 -59 46 C-56.91796875 44.52734375 -56.91796875 44.52734375 -54.1875 42.9375 C-53.29417969 42.41027344 -52.40085938 41.88304687 -51.48046875 41.33984375 C-49 40 -49 40 -46 39 C-45.19208825 37.13052987 -45.19208825 37.13052987 -44.6875 34.875 C-42.53021943 27.9053243 -38.74958196 23.80741361 -32.5 20.125 C-29.03079256 18.33463068 -25.9340362 17.30261817 -22 17 C-21.97421875 16.43152344 -21.9484375 15.86304687 -21.921875 15.27734375 C-21.49544164 9.47203503 -20.32807279 5.7963402 -17 1 C-11.59613882 -2.60257412 -5.84335758 -2.76593898 0 0 Z M-23 35 C-23 35.33 -23 35.66 -23 36 C-13.43 36.33 -3.86 36.66 6 37 C1.00385701 32.00385701 -0.99095245 31.79830693 -7.6875 31.75 C-8.73067383 31.7190625 -8.73067383 31.7190625 -9.79492188 31.6875 C-14.91969885 31.64921969 -18.41259553 32.71531625 -23 35 Z M-49 64 C-44.20716691 63.4910703 -39.43505409 62.93047836 -34.6640625 62.24609375 C-16.06208035 59.69619748 2.26514468 59.68149113 21 60 C18.33455181 56.14643414 16.61137345 55.1310916 12 54 C6.35511626 53.16171064 0.88966059 52.83878216 -4.8125 52.875 C-5.60148682 52.87910889 -6.39047363 52.88321777 -7.20336914 52.88745117 C-21.32969495 53.02207032 -37.79948037 54.26041771 -49 64 Z M-80.10546875 98.84375 C-83.39531708 102.58807222 -85.79743177 106.54130565 -88 111 C-88.41378906 111.79664063 -88.82757813 112.59328125 -89.25390625 113.4140625 C-93.9561569 123.99822251 -93.62923255 137.28821442 -90.125 148.1875 C-86.80108797 156.28175263 -82.17231828 163.95099986 -77 171 C-76.34 171 -75.68 171 -75 171 C-74.814375 171.680625 -74.62875 172.36125 -74.4375 173.0625 C-72.73724037 176.53694359 -70.59213619 178.57809562 -67.8125 181.21875 C-66.12381779 182.878317 -64.65630933 184.58400251 -63.1875 186.4375 C-62.465625 187.283125 -61.74375 188.12875 -61 189 C-60.34 189 -59.68 189 -59 189 C-59 189.66 -59 190.32 -59 191 C-58.34 191 -57.68 191 -57 191 C-57 191.66 -57 192.32 -57 193 C-56.34 193 -55.68 193 -55 193 C-55 193.66 -55 194.32 -55 195 C-54.34 195 -53.68 195 -53 195 C-53 195.66 -53 196.32 -53 197 C-52.34 197 -51.68 197 -51 197 C-51 197.66 -51 198.32 -51 199 C-50.34 199 -49.68 199 -49 199 C-49 199.66 -49 200.32 -49 201 C-48.34 201 -47.68 201 -47 201 C-47 201.66 -47 202.32 -47 203 C-46.34 203 -45.68 203 -45 203 C-44.7628125 203.52078125 -44.525625 204.0415625 -44.28125 204.578125 C-42.58076777 207.79245117 -40.55778691 210.75864843 -38.5 213.75 C-38.09652344 214.35199219 -37.69304687 214.95398438 -37.27734375 215.57421875 C-36.23779729 217.08722202 -35.12411157 218.54872163 -34 220 C-33.34 220 -32.68 220 -32 220 C-31.773125 220.825 -31.54625 221.65 -31.3125 222.5 C-30.25500253 225.31999324 -29.40385085 226.98196822 -27.75 229.375 C-23.63311027 235.64250377 -21.48170995 242.97275259 -19 250 C-10.96772203 234.49421122 -13.57588316 219.07715833 -18 203 C-18.37518129 201.59023769 -18.7488963 200.18008428 -19.12109375 198.76953125 C-19.79146171 196.23330581 -20.47465267 193.70206437 -21.16796875 191.171875 C-25.65212155 174.07735821 -23.52602708 156.87508134 -14.66015625 141.546875 C-12.42133084 138.11225342 -9.94772954 134.92228233 -7.3203125 131.77734375 C-5.80122533 130.10143302 -5.80122533 130.10143302 -6 128 C-5.34 128 -4.68 128 -4 128 C-2.36324492 126.38200498 -2.36324492 126.38200498 -0.6875 124.3125 C4.56490406 118.04502459 10.53473075 112.62880547 16.62304688 107.19726562 C18.11915331 105.83794606 19.56435779 104.42303042 21 103 C21 102.34 21 101.68 21 101 C21.66 101 22.32 101 23 101 C28.06836305 95.54004157 32.21236049 89.39164167 36 83 C34.54683309 82.36308004 33.0870304 81.74130205 31.625 81.125 C30.81289063 80.77695313 30.00078125 80.42890625 29.1640625 80.0703125 C19.4358552 76.7795362 9.78432901 76.63557815 -0.375 76.6875 C-1.12977631 76.68965515 -1.88455261 76.6918103 -2.66220093 76.69403076 C-28.41897935 76.81200438 -60.605713 80.03136968 -80.10546875 98.84375 Z M44 93 C42.17726504 96.77949455 40.53134365 100.19611518 41.62109375 104.390625 C42.30819549 105.87053645 43.04007438 107.33085736 43.82421875 108.76171875 C51.25397651 122.90541044 50.32660202 141.9687462 45.89453125 156.88671875 C43.29416267 165.13708139 40.3588432 172.84316526 35.25 179.875 C32.80523176 182.62872304 32.80523176 182.62872304 33 185 C32.34 185 31.68 185 31 185 C29.53587878 186.48677661 29.53587878 186.48677661 28 188.4375 C22.25173993 195.17355632 16.16649534 200.830627 8.375 205.0625 C5.82929233 206.72516532 4.27013821 207.82919645 3.5703125 210.86230469 C3.13469599 215.61270278 3.48883048 220.26884214 4 225 C16.0383104 221.43112037 25.18847243 212.55575028 34 204 C34.93972656 203.10667969 35.87945312 202.21335937 36.84765625 201.29296875 C39.22813183 199.28111018 39.22813183 199.28111018 39 197 C39.66 197 40.32 197 41 197 C43.11667611 194.69840501 44.83340524 192.05890959 46.625 189.5 C47.16261963 188.73405518 47.70023926 187.96811035 48.25415039 187.17895508 C53.31316991 179.80944572 57.35359617 172.14678182 61 164 C61.72123047 162.39318359 61.72123047 162.39318359 62.45703125 160.75390625 C70.06906409 143.06915322 74.18340483 125.09815189 76 106 C74.97261719 105.71253906 73.94523437 105.42507812 72.88671875 105.12890625 C69.49416322 104.15972666 66.15315527 103.07410069 62.8125 101.9375 C59.55984204 100.83101173 56.34828973 99.77514106 53 99 C53 98.34 53 97.68 53 97 C48.93426439 93.80439959 48.93426439 93.80439959 44 93 Z M5 151 C4.67 152.32 4.34 153.64 4 155 C4.70125 155.21914062 5.4025 155.43828125 6.125 155.6640625 C12.68796159 157.85766107 17.75039627 160.48744665 23 165 C23.9753386 161.8966499 24.20312836 160.46268126 22.875 157.4375 C20.64637777 154.5402911 19.21878904 152.81056883 16 151 C12.3083635 150.67197024 8.69540577 150.7670147 5 151 Z M-4 168 C-4 170.31 -4 172.62 -4 175 C1.445 176.485 1.445 176.485 7 178 C7.33 176.35 7.66 174.7 8 173 C2.36264929 169.5635133 2.36264929 169.5635133 -4 168 Z " fill="#984009" transform="translate(260,34)"/>
<path d="M0 0 C1 2 1 2 0.57533264 4.04447937 C-0.22051588 8.1328042 -0.17783762 12.13208937 -0.20532227 16.28833008 C-0.21522186 17.21564941 -0.22512146 18.14296875 -0.23532104 19.09838867 C-0.26684162 22.15541046 -0.29165612 25.21244777 -0.31640625 28.26953125 C-0.33698393 30.3923126 -0.35798062 32.51508993 -0.37937927 34.63786316 C-0.43451585 40.21911354 -0.48396221 45.80040039 -0.53222656 51.38171387 C-0.58250306 57.07937863 -0.63815701 62.77699058 -0.69335938 68.47460938 C-0.80083803 79.64969444 -0.90230581 90.82482541 -1 102 C-0.01 102 0.98 102 2 102 C2 102.66 2 103.32 2 104 C0.68 104 -0.64 104 -2 104 C-2.04628303 90.88306262 -2.08184867 77.76614458 -2.10362434 64.64914227 C-2.11407407 58.55879017 -2.12825498 52.46849383 -2.15087891 46.37817383 C-2.17256485 40.50378176 -2.18455966 34.62944342 -2.18975449 28.75501442 C-2.19345789 26.51066047 -2.20068942 24.26630954 -2.21146011 22.02197838 C-2.22591849 18.8852738 -2.22798031 15.74879293 -2.22705078 12.61206055 C-2.23424133 11.67842178 -2.24143188 10.74478302 -2.24884033 9.78285217 C-2.246091 8.92889862 -2.24334167 8.07494507 -2.24050903 7.19511414 C-2.24235262 6.45307078 -2.24419621 5.71102743 -2.24609566 4.94649792 C-2 3 -2 3 0 0 Z " fill="#8A441B" transform="translate(430,274)"/>
<path d="M0 0 C3.35442664 0.1401998 6.70846775 0.28818428 10.0625 0.4375 C11.00544922 0.47681641 11.94839844 0.51613281 12.91992188 0.55664062 C20.56680431 0.90301509 27.67467416 1.75755332 35 4 C34.67 4.99 34.34 5.98 34 7 C33.175 6.690625 32.35 6.38125 31.5 6.0625 C24.853811 4.04490691 18.20443715 3.83296684 11.3125 3.875 C10.14871826 3.87790039 10.14871826 3.87790039 8.96142578 3.88085938 C2.27373851 3.9304284 -4.34303518 4.34136037 -11 5 C-10.67 4.34 -10.34 3.68 -10 3 C-7.03 3 -4.06 3 -1 3 C-0.67 2.01 -0.34 1.02 0 0 Z " fill="#A16236" transform="translate(244,84)"/>
<path d="M0 0 C0.33 0.66 0.66 1.32 1 2 C1.99 2.33 2.98 2.66 4 3 C3.67 24.12 3.34 45.24 3 67 C1.02 67.495 1.02 67.495 -1 68 C-0.67 66.68 -0.34 65.36 0 64 C0.33 64.33 0.66 64.66 1 65 C1.02319817 57.26333281 1.04095318 49.52666924 1.05181217 41.78997517 C1.05702465 38.19729189 1.06409257 34.60463245 1.07543945 31.01196289 C1.08632649 27.54307509 1.09228916 24.07421019 1.09487724 20.60530663 C1.09761664 18.64167398 1.10541944 16.67805052 1.11329651 14.71443176 C1.11337204 13.5135643 1.11344757 12.31269684 1.11352539 11.07543945 C1.115746 10.02064896 1.11796661 8.96585846 1.12025452 7.87910461 C1.00599485 5.14352713 0.61892382 2.66237066 0 0 Z " fill="#A06236" transform="translate(240,364)"/>
<path d="M0 0 C-2.3125 1.5625 -2.3125 1.5625 -5 3 C-5.99 2.67 -6.98 2.34 -8 2 C-8.33 2.66 -8.66 3.32 -9 4 C-10.32 3.67 -11.64 3.34 -13 3 C-13.33 3.99 -13.66 4.98 -14 6 C-17.63 6 -21.26 6 -25 6 C-24.67 6.66 -24.34 7.32 -24 8 C-25.65 8 -27.3 8 -29 8 C-29 7.34 -29 6.68 -29 6 C-29.99 5.67 -30.98 5.34 -32 5 C-28.08809867 4.11574572 -24.17376782 3.24329755 -20.25683594 2.3815918 C-18.92539087 2.08695693 -17.59464686 1.78913488 -16.26464844 1.48803711 C-14.35019353 1.05521005 -12.43292869 0.63487162 -10.515625 0.21484375 C-8.78747559 -0.17006226 -8.78747559 -0.17006226 -7.02441406 -0.56274414 C-4.21892132 -0.96834936 -2.62804382 -0.95026906 0 0 Z " fill="#904C24" transform="translate(404,384)"/>
<path d="M0 0 C2.24973447 -0.054138 4.49984383 -0.09285491 6.75 -0.125 C8.00296875 -0.14820313 9.2559375 -0.17140625 10.546875 -0.1953125 C13.9440476 -0.00316473 15.08833253 0.53760846 18 2 C20.14724089 2.488103 20.14724089 2.488103 22.40625 2.74609375 C23.23253906 2.86146484 24.05882813 2.97683594 24.91015625 3.09570312 C26.63621631 3.3235014 28.36278707 3.54746306 30.08984375 3.76757812 C37.85519932 4.86393488 37.85519932 4.86393488 41 8 C35.01938999 7.33242903 29.20086418 6.29198862 23.3125 5.0625 C15.56580036 3.47527329 7.83479395 2.08657726 0 1 C0 0.67 0 0.34 0 0 Z " fill="#A7673B" transform="translate(78,396)"/>
<path d="M0 0 C0 0.66 0 1.32 0 2 C-1.32 2.33 -2.64 2.66 -4 3 C-4 3.66 -4 4.32 -4 5 C-4.99 5 -5.98 5 -7 5 C-7 5.66 -7 6.32 -7 7 C-8.258125 7.268125 -9.51625 7.53625 -10.8125 7.8125 C-16.26120106 9.0185023 -21.62778989 10.49377287 -27 12 C-23.30394268 8.1479909 -20.3447407 6.76340395 -15.3125 5.125 C-11.52857498 3.83989339 -7.86167949 2.33651543 -4.171875 0.8046875 C-2 0 -2 0 0 0 Z " fill="#A25A2B" transform="translate(325,405)"/>
<path d="M0 0 C0.33 0.99 0.66 1.98 1 3 C0.01 3.33 -0.98 3.66 -2 4 C-2.144375 4.5775 -2.28875 5.155 -2.4375 5.75 C-3.21565674 8.86262696 -4.85543552 10.66047511 -7 13 C-7.66 13 -8.32 13 -9 13 C-9.268125 13.598125 -9.53625 14.19625 -9.8125 14.8125 C-10.98493467 16.97224808 -12.19369282 18.35790256 -14 20 C-14 16.63596525 -13.38119947 15.59907083 -11.625 12.8125 C-11.18414062 12.09707031 -10.74328125 11.38164063 -10.2890625 10.64453125 C-9.86367187 10.10183594 -9.43828125 9.55914062 -9 9 C-8.34 9 -7.68 9 -7 9 C-6.773125 8.443125 -6.54625 7.88625 -6.3125 7.3125 C-4.64103234 4.36753316 -2.44723648 2.31843456 0 0 Z " fill="#A86139" transform="translate(173,114)"/>
<path d="M0 0 C0.66 0.33 1.32 0.66 2 1 C0.9171875 1.5878125 0.9171875 1.5878125 -0.1875 2.1875 C-3.13439885 3.92307807 -3.13439885 3.92307807 -5.5 6.6875 C-8 9 -8 9 -10.8125 9.3125 C-11.534375 9.209375 -12.25625 9.10625 -13 9 C-13.309375 9.9590625 -13.309375 9.9590625 -13.625 10.9375 C-15 13 -15 13 -18.125 13.75 C-19.548125 13.87375 -19.548125 13.87375 -21 14 C-17.39617751 9.8854754 -13.04460135 7.41012831 -8.375 4.6875 C-7.59898437 4.22021484 -6.82296875 3.75292969 -6.0234375 3.27148438 C-5.2809375 2.83513672 -4.5384375 2.39878906 -3.7734375 1.94921875 C-3.09716309 1.55049561 -2.42088867 1.15177246 -1.72412109 0.7409668 C-1.15516113 0.49644775 -0.58620117 0.25192871 0 0 Z " fill="#9A592D" transform="translate(315,387)"/>
<path d="M0 0 C0.66 0.66 1.32 1.32 2 2 C1.81511956 4.86564686 1.20773139 5.81237165 -0.9375 7.75 C-3 9 -3 9 -5 9 C-5 10.65 -5 12.3 -5 14 C-7.31 14.66 -9.62 15.32 -12 16 C-8 10.66666667 -4 5.33333333 0 0 Z " fill="#AE6B4A" transform="translate(295,118)"/>
<path d="M0 0 C0.66 0 1.32 0 2 0 C2.25 5.625 2.25 5.625 0 9 C-0.86625 9.495 -1.7325 9.99 -2.625 10.5 C-3.40875 10.995 -4.1925 11.49 -5 12 C-5 12.99 -5 13.98 -5 15 C-6.32 15.33 -7.64 15.66 -9 16 C-7.66414626 11.99243877 -5.65836661 9.00249087 -3.17578125 5.6484375 C-1.8939504 3.85131916 -0.8888731 2.02016614 0 0 Z " fill="#9A5731" transform="translate(316,207)"/>
<path d="M0 0 C0.33 0 0.66 0 1 0 C1 3.96 1 7.92 1 12 C-4.35444029 14.14177612 -5.03349218 14.07900327 -10 12 C-6.81237635 9.87491756 -4.73487777 9.4979837 -1 9 C-0.67 6.03 -0.34 3.06 0 0 Z " fill="#A4643A" transform="translate(239,42)"/>
<path d="M0 0 C0.66 0.66 1.32 1.32 2 2 C4.19704511 2.67651207 4.19704511 2.67651207 6.625 3.125 C7.44226563 3.29257812 8.25953125 3.46015625 9.1015625 3.6328125 C9.72804687 3.75398438 10.35453125 3.87515625 11 4 C11 4.66 11 5.32 11 6 C12.98 5.67 14.96 5.34 17 5 C17 5.66 17 6.32 17 7 C17.66 7 18.32 7 19 7 C19 7.66 19 8.32 19 9 C11.50387484 7.47536437 4.28640866 5.31993846 -3 3 C-2.01 2.67 -1.02 2.34 0 2 C0 1.34 0 0.68 0 0 Z " fill="#9B5F33" transform="translate(130,404)"/>
<path d="M0 0 C1.33855056 0.78281305 2.67073644 1.57651877 4 2.375 C5.11375 3.03628906 5.11375 3.03628906 6.25 3.7109375 C6.8275 4.13632812 7.405 4.56171875 8 5 C8 5.66 8 6.32 8 7 C10.475 7.99 10.475 7.99 13 9 C13 9.66 13 10.32 13 11 C13.99 11.33 14.98 11.66 16 12 C15.01 12.495 15.01 12.495 14 13 C8.4754139 10.43982595 3.22802415 7.28222134 0 2 C0 1.34 0 0.68 0 0 Z " fill="#A76D37" transform="translate(192,284)"/>
<path d="M0 0 C-1.375 2.5 -1.375 2.5 -3 5 C-3.66 5 -4.32 5 -5 5 C-5.28875 5.598125 -5.5775 6.19625 -5.875 6.8125 C-7 9 -7 9 -9 12 C-9.66 12 -10.32 12 -11 12 C-11.33 12.66 -11.66 13.32 -12 14 C-12 12.35 -12 10.7 -12 9 C-10.68 8.67 -9.36 8.34 -8 8 C-8 7.01 -8 6.02 -8 5 C-7.34 5 -6.68 5 -6 5 C-6.33 3.68 -6.66 2.36 -7 1 C-3.375 -1.125 -3.375 -1.125 0 0 Z " fill="#A3633D" transform="translate(319,235)"/>
<path d="M0 0 C-1.45002023 4.10839064 -3.3979134 7.50344613 -6 11 C-6.66 11 -7.32 11 -8 11 C-8.66 12.32 -9.32 13.64 -10 15 C-10.33 14.01 -10.66 13.02 -11 12 C-9.6875 10.0625 -9.6875 10.0625 -8 8 C-7.5359375 7.01 -7.5359375 7.01 -7.0625 6 C-5.48752059 3.03533288 -3.55903314 0 0 0 Z " fill="#AC6B44" transform="translate(299,208)"/>
<path d="M0 0 C0.99 0.33 1.98 0.66 3 1 C3 2.32 3 3.64 3 5 C0.03312999 6.64826111 -2.65626525 7.44271087 -6 8 C-6 5 -6 5 -4.6875 3.4375 C-3 2 -3 2 0 0 Z " fill="#9E3B07" transform="translate(377,263)"/>
<path d="M0 0 C1.65 0 3.3 0 5 0 C4.01 1.485 4.01 1.485 3 3 C2.34 3 1.68 3 1 3 C1 3.66 1 4.32 1 5 C0.34 5 -0.32 5 -1 5 C-1 5.66 -1 6.32 -1 7 C-1.66 7 -2.32 7 -3 7 C-3 7.66 -3 8.32 -3 9 C-5.5 10.625 -5.5 10.625 -8 12 C-7.65930765 8.84859577 -7.41923159 7.39218439 -5.0625 5.1875 C-3 4 -3 4 -1 4 C-0.67 2.68 -0.34 1.36 0 0 Z " fill="#B17549" transform="translate(300,251)"/>
<path d="M0 0 C0.33 0.66 0.66 1.32 1 2 C0.00390625 4.3828125 0.00390625 4.3828125 -1.4375 7.125 C-1.91058594 8.03507813 -2.38367188 8.94515625 -2.87109375 9.8828125 C-3.24363281 10.58148438 -3.61617188 11.28015625 -4 12 C-5.32 12 -6.64 12 -8 12 C-8 12.99 -8 13.98 -8 15 C-9.32 14.67 -10.64 14.34 -12 14 C-11.04882866 12.8274869 -10.08882991 11.66212985 -9.125 10.5 C-8.59132813 9.8503125 -8.05765625 9.200625 -7.5078125 8.53125 C-7.01023437 8.0259375 -6.51265625 7.520625 -6 7 C-5.34 7 -4.68 7 -4 7 C-3.71125 6.401875 -3.4225 5.80375 -3.125 5.1875 C-2 3 -2 3 0 0 Z " fill="#A66A41" transform="translate(305,224)"/>
<path d="M0 0 C0.99 0.33 1.98 0.66 3 1 C3 5.62 3 10.24 3 15 C2.01 15 1.02 15 0 15 C0 10.05 0 5.1 0 0 Z " fill="#883C09" transform="translate(260,241)"/>
<path d="M0 0 C4.29 0 8.58 0 13 0 C12 2 12 2 9.41796875 2.88671875 C8.35191406 3.15097656 7.28585937 3.41523438 6.1875 3.6875 C4.60001953 4.09548828 4.60001953 4.09548828 2.98046875 4.51171875 C0.16731706 4.97258895 -1.35965663 4.9525694 -4 4 C-4 3.67 -4 3.34 -4 3 C-2.02 2.67 -0.04 2.34 2 2 C1.34 1.34 0.68 0.68 0 0 Z " fill="#AA6941" transform="translate(402,368)"/>
<path d="M0 0 C0.33 1.32 0.66 2.64 1 4 C0.01 4 -0.98 4 -2 4 C-1.67 4.99 -1.34 5.98 -1 7 C-1.99 7 -2.98 7 -4 7 C-4.33 7.99 -4.66 8.98 -5 10 C-6.98 10.33 -8.96 10.66 -11 11 C-10.34 10.01 -9.68 9.02 -9 8 C-8.34 8 -7.68 8 -7 8 C-7 7.34 -7 6.68 -7 6 C-5.46875 4.4921875 -5.46875 4.4921875 -3.5 2.875 C-2.8503125 2.33617187 -2.200625 1.79734375 -1.53125 1.2421875 C-0.77328125 0.62730469 -0.77328125 0.62730469 0 0 Z " fill="#A86E47" transform="translate(296,293)"/>
<path d="M0 0 C-1.51492716 3.44301628 -3.6216335 6.29516099 -5.82421875 9.31640625 C-7.09158114 11.13113446 -8.10851774 12.97390396 -9 15 C-9.33 15 -9.66 15 -10 15 C-10 13.35 -10 11.7 -10 10 C-9.01 9.67 -8.02 9.34 -7 9 C-6.896875 8.071875 -6.79375 7.14375 -6.6875 6.1875 C-5.7196914 1.70038741 -4.70050317 0 0 0 Z " fill="#AD7D58" transform="translate(182,130)"/>
<path d="M0 0 C-2.49257253 1.66171502 -4.79516513 2.9387679 -7.5 4.1875 C-8.2734375 4.55230469 -9.046875 4.91710937 -9.84375 5.29296875 C-12 6 -12 6 -15 5 C-15 4.34 -15 3.68 -15 3 C-13.68 3 -12.36 3 -11 3 C-10.67 2.34 -10.34 1.68 -10 1 C-8.125 0.4375 -8.125 0.4375 -6 0 C-3 -1 -3 -1 0 0 Z " fill="#9B5027" transform="translate(204,119)"/>
<path d="M0 0 C4.19469571 0.59924224 8.00999834 1.57499941 12 3 C12.33 4.65 12.66 6.3 13 8 C10.03216871 6.54331217 7.13584687 4.98767914 4.25 3.375 C3.45078125 2.92898438 2.6515625 2.48296875 1.828125 2.0234375 C1.22484375 1.68570312 0.6215625 1.34796875 0 1 C0 0.67 0 0.34 0 0 Z " fill="#A76840" transform="translate(226,447)"/>
<path d="M0 0 C0 0.66 0 1.32 0 2 C-1.32 2.33 -2.64 2.66 -4 3 C-3.67 3.99 -3.34 4.98 -3 6 C-6.96 6.66 -10.92 7.32 -15 8 C-13.48529691 4.97059382 -11.0596179 4.35039454 -8.0625 2.875 C-6.98097656 2.33617187 -5.89945312 1.79734375 -4.78515625 1.2421875 C-2 0 -2 0 0 0 Z " fill="#A16338" transform="translate(341,266)"/>
<path d="M0 0 C2.97 0.495 2.97 0.495 6 1 C6 1.99 6 2.98 6 4 C6.66 4 7.32 4 8 4 C8 7.3 8 10.6 8 14 C7.01 13.67 6.02 13.34 5 13 C5.226875 12.278125 5.45375 11.55625 5.6875 10.8125 C6.09170575 7.17464828 5.13932004 5.90336291 3 3 C1.41754725 1.24850835 1.41754725 1.24850835 0 0 Z " fill="#A7663B" transform="translate(277,186)"/>
<path d="M0 0 C0.33 0 0.66 0 1 0 C0.67 4.62 0.34 9.24 0 14 C-2.31 14 -4.62 14 -7 14 C-6.01 13.67 -5.02 13.34 -4 13 C-4 12.34 -4 11.68 -4 11 C-3.34 11 -2.68 11 -2 11 C-1.855625 9.9275 -1.71125 8.855 -1.5625 7.75 C-1.16250558 5.08337051 -0.72408076 2.58600271 0 0 Z " fill="#A06138" transform="translate(192,93)"/>
<path d="M0 0 C1.98 0 3.96 0 6 0 C2.9377256 2.48627517 -0.1457054 4.09989404 -3.75 5.6875 C-4.73484375 6.12449219 -5.7196875 6.56148438 -6.734375 7.01171875 C-7.48203125 7.33785156 -8.2296875 7.66398437 -9 8 C-8.75390625 6.109375 -8.75390625 6.109375 -8 4 C-6.15234375 2.953125 -6.15234375 2.953125 -3.9375 2.25 C-2.83728516 1.88648438 -2.83728516 1.88648438 -1.71484375 1.515625 C-1.14894531 1.34546875 -0.58304687 1.1753125 0 1 C0 0.67 0 0.34 0 0 Z " fill="#A56337" transform="translate(290,436)"/>
<path d="M0 0 C2.24940295 -0.08119503 4.49964871 -0.13927819 6.75 -0.1875 C8.00296875 -0.22230469 9.2559375 -0.25710938 10.546875 -0.29296875 C14.14109357 0.01197061 15.44725126 0.54394629 18 3 C15.74943278 2.88566637 13.49953326 2.75813564 11.25 2.625 C9.99703125 2.55539062 8.7440625 2.48578125 7.453125 2.4140625 C4.39001879 2.04676696 2.58025734 1.60288714 0 0 Z " fill="#965D2F" transform="translate(78,396)"/>
<path d="M0 0 C-2.3125 1.5625 -2.3125 1.5625 -5 3 C-5.99 2.67 -6.98 2.34 -8 2 C-8.33 2.66 -8.66 3.32 -9 4 C-10.32 4 -11.64 4 -13 4 C-13.66 3.34 -14.32 2.68 -15 2 C-4.73863636 -1.57954545 -4.73863636 -1.57954545 0 0 Z " fill="#A36234" transform="translate(404,384)"/>
<path d="M0 0 C2 4 2 4 1.1015625 7.453125 C0.62475094 8.72462251 0.13198135 9.99022816 -0.375 11.25 C-0.6225 11.8996875 -0.87 12.549375 -1.125 13.21875 C-1.73639014 14.81777037 -2.36640959 16.40964556 -3 18 C-4.0546875 16.171875 -4.0546875 16.171875 -5 14 C-4.125 11.25 -4.125 11.25 -3 9 C-2.34 9 -1.68 9 -1 9 C-0.67 6.03 -0.34 3.06 0 0 Z " fill="#B0704D" transform="translate(343,181)"/>
<path d="M0 0 C0.33 0 0.66 0 1 0 C1 2.97 1 5.94 1 9 C-2.3 9 -5.6 9 -9 9 C-8 7 -8 7 -4.5 5.625 C-0.89357557 4.42410267 -0.89357557 4.42410267 -0.0625 1.8125 C-0.041875 1.214375 -0.02125 0.61625 0 0 Z " fill="#AC704C" transform="translate(215,69)"/>
<path d="M0 0 C1.32 0.66 2.64 1.32 4 2 C2.71283353 3.00578589 1.42011342 4.00446798 0.125 5 C-0.95394531 5.8353125 -0.95394531 5.8353125 -2.0546875 6.6875 C-4 8 -4 8 -6 8 C-6 8.66 -6 9.32 -6 10 C-6.66 9.67 -7.32 9.34 -8 9 C-7.67 8.34 -7.34 7.68 -7 7 C-6.34 7 -5.68 7 -5 7 C-5 5.68 -5 4.36 -5 3 C-3.68 3.33 -2.36 3.66 -1 4 C-0.67 2.68 -0.34 1.36 0 0 Z " fill="#A96B42" transform="translate(320,293)"/>
<path d="M0 0 C0.99 0 1.98 0 3 0 C3.12375 0.969375 3.2475 1.93875 3.375 2.9375 C3.684375 4.4534375 3.684375 4.4534375 4 6 C4.66 6.33 5.32 6.66 6 7 C6.66 7.66 7.32 8.32 8 9 C7.625 11.125 7.625 11.125 7 13 C0 4.25 0 4.25 0 0 Z " fill="#A8683A" transform="translate(214,265)"/>
<path d="M0 0 C2.31 0.66 4.62 1.32 7 2 C7.33 4.31 7.66 6.62 8 9 C7.34 9 6.68 9 6 9 C4.4921875 7.03125 4.4921875 7.03125 2.875 4.5 C2.33617187 3.6646875 1.79734375 2.829375 1.2421875 1.96875 C0.83226562 1.3190625 0.42234375 0.669375 0 0 Z " fill="#AE673E" transform="translate(201,249)"/>
<path d="M0 0 C0.33 1.32 0.66 2.64 1 4 C-1.46278801 6.46278801 -3.70676982 6.99771255 -7 8 C-7.66 7.34 -8.32 6.68 -9 6 C-6.03 4.02 -3.06 2.04 0 0 Z " fill="#A96942" transform="translate(279,250)"/>
<path d="M0 0 C0.33 0 0.66 0 1 0 C1.2396943 5.63281599 0.38529821 10.54538831 -1 16 C-1.33 16 -1.66 16 -2 16 C-2.05384521 13.70858714 -2.09272087 11.41681812 -2.125 9.125 C-2.14820313 7.84882813 -2.17140625 6.57265625 -2.1953125 5.2578125 C-2 2 -2 2 0 0 Z " fill="#9E5C34" transform="translate(350,155)"/>
<path d="M0 0 C2 3.75 2 3.75 2 6 C1.34 6 0.68 6 0 6 C0 6.99 0 7.98 0 9 C0.66 9 1.32 9 2 9 C2 9.66 2 10.32 2 11 C0.35 11.66 -1.3 12.32 -3 13 C-2.343621 8.51474352 -1.29925791 4.33085971 0 0 Z " fill="#A55835" transform="translate(154,140)"/>
<path d="M0 0 C2.3125 0.1875 2.3125 0.1875 5 1 C6.8125 3.5625 6.8125 3.5625 8 6 C7.01 6.495 7.01 6.495 6 7 C6 6.34 6 5.68 6 5 C4.35 5 2.7 5 1 5 C0.67 3.35 0.34 1.7 0 0 Z " fill="#A96843" transform="translate(255,33)"/>
<path d="M0 0 C2.97 0.99 5.94 1.98 9 3 C9 3.99 9 4.98 9 6 C6.23723823 5.47731534 3.6739124 4.89130413 1 4 C0.67 2.68 0.34 1.36 0 0 Z " fill="#935026" transform="translate(219,441)"/>
<path d="M0 0 C1.32 0.66 2.64 1.32 4 2 C1.14521674 3.90318884 -0.41941308 4.4619099 -3.6875 5.125 C-4.49574219 5.29257812 -5.30398438 5.46015625 -6.13671875 5.6328125 C-6.75160156 5.75398438 -7.36648438 5.87515625 -8 6 C-8 5.34 -8 4.68 -8 4 C-4.91190305 2.23537317 -3.76687864 2 0 2 C0 1.34 0 0.68 0 0 Z " fill="#A65E35" transform="translate(353,409)"/>
<path d="M0 0 C0.99 0.33 1.98 0.66 3 1 C1.02 4.96 -0.96 8.92 -3 13 C-3.33 13 -3.66 13 -4 13 C-4.125 10.125 -4.125 10.125 -4 7 C-3.34 6.34 -2.68 5.68 -2 5 C-1.29289322 3.35008418 -0.62056011 1.68437744 0 0 Z " fill="#B27350" transform="translate(262,356)"/>
<path d="M0 0 C-0.33 0.99 -0.66 1.98 -1 3 C-1.804375 3.12375 -2.60875 3.2475 -3.4375 3.375 C-4.7059375 3.684375 -4.7059375 3.684375 -6 4 C-6.33 4.66 -6.66 5.32 -7 6 C-9.31 5.67 -11.62 5.34 -14 5 C-11.56585763 3.37723842 -9.68680554 2.38255208 -7 1.375 C-6.319375 1.11460937 -5.63875 0.85421875 -4.9375 0.5859375 C-3 0 -3 0 0 0 Z " fill="#A86941" transform="translate(372,254)"/>
<path d="M0 0 C2.20187672 2.20187672 3.28178929 4.22885682 4.6875 7 C5.14511719 7.886875 5.60273438 8.77375 6.07421875 9.6875 C6.37972656 10.450625 6.68523437 11.21375 7 12 C6.67 12.66 6.34 13.32 6 14 C5.34 14 4.68 14 4 14 C3.67 12.02 3.34 10.04 3 8 C2.34 8 1.68 8 1 8 C0.67 5.36 0.34 2.72 0 0 Z " fill="#B17C52" transform="translate(170,182)"/>
<path d="M0 0 C1.18916016 0.01353516 1.18916016 0.01353516 2.40234375 0.02734375 C4.35169281 0.05082988 6.30088575 0.08669863 8.25 0.125 C8.25 0.455 8.25 0.785 8.25 1.125 C7.32058594 1.17398438 6.39117187 1.22296875 5.43359375 1.2734375 C-3.82660933 1.82177146 -3.82660933 1.82177146 -12.75 4.125 C-12.75 3.465 -12.75 2.805 -12.75 2.125 C-8.77389214 -0.58986934 -4.61098023 -0.09940753 0 0 Z " fill="#A76D49" transform="translate(249.75,64.875)"/>
<path d="M0 0 C0 1.65 0 3.3 0 5 C-0.928125 5.268125 -1.85625 5.53625 -2.8125 5.8125 C-5.76240366 6.91148371 -7.05615186 7.62418561 -9 10 C-9.66 9.67 -10.32 9.34 -11 9 C-9.35687553 7.49703315 -7.71042916 5.99769719 -6.0625 4.5 C-5.14597656 3.6646875 -4.22945313 2.829375 -3.28515625 1.96875 C-1 0 -1 0 0 0 Z " fill="#AE6F44" transform="translate(276,414)"/>
<path d="M0 0 C1.45903258 0.30921884 2.91720722 0.62248799 4.375 0.9375 C5.18710938 1.11152344 5.99921875 1.28554688 6.8359375 1.46484375 C9 2 9 2 11 3 C11 3.66 11 4.32 11 5 C3.5340751 5.36717663 3.5340751 5.36717663 1 3.625 C0 2 0 2 0 0 Z " fill="#B2693A" transform="translate(181,407)"/>
<path d="M0 0 C0.33 0.66 0.66 1.32 1 2 C1.99 1.34 2.98 0.68 4 0 C6.6875 -0.125 6.6875 -0.125 9 0 C6.45368965 2.97069541 3.57769851 4.4775751 0 6 C-0.66 5.67 -1.32 5.34 -2 5 C-1.34 3.35 -0.68 1.7 0 0 Z " fill="#A66131" transform="translate(324,396)"/>
<path d="M0 0 C3.63559661 3.43361902 6.36113346 6.7973607 9 11 C7.35 10.67 5.7 10.34 4 10 C4 9.01 4 8.02 4 7 C3.34 7 2.68 7 2 7 C1.34 4.69 0.68 2.38 0 0 Z " fill="#B17748" transform="translate(230,319)"/>
<path d="M0 0 C0.66 0.99 1.32 1.98 2 3 C0.40084119 3.69906942 -1.20455045 4.38389468 -2.8125 5.0625 C-3.70582031 5.44535156 -4.59914063 5.82820313 -5.51953125 6.22265625 C-8 7 -8 7 -11 6 C-10.401875 5.71125 -9.80375 5.4225 -9.1875 5.125 C-6.80672208 3.95257974 -6.80672208 3.95257974 -4 2 C-2.68 2 -1.36 2 0 2 C0 1.34 0 0.68 0 0 Z " fill="#AA683F" transform="translate(368,269)"/>
<path d="M0 0 C4.83628305 0.99043705 9.47618873 1.95698846 14 4 C13.01 4.66 12.02 5.32 11 6 C11 5.34 11 4.68 11 4 C7.7 3.67 4.4 3.34 1 3 C0.67 2.01 0.34 1.02 0 0 Z " fill="#A36831" transform="translate(126,253)"/>
<path d="M0 0 C0.66 0 1.32 0 2 0 C2 1.65 2 3.3 2 5 C0.35 5.66 -1.3 6.32 -3 7 C-2.1654738 4.49642139 -1.20628008 2.33214148 0 0 Z M-5 7 C-4.34 7.33 -3.68 7.66 -3 8 C-3.99 8.99 -4.98 9.98 -6 11 C-5.67 9.68 -5.34 8.36 -5 7 Z " fill="#923603" transform="translate(164,126)"/>
<path d="M0 0 C-0.33 0.99 -0.66 1.98 -1 3 C-2.2375 2.5359375 -2.2375 2.5359375 -3.5 2.0625 C-7.39126155 0.88122417 -10.96166953 0.41775832 -15 0 C-10.35755321 -3.28839981 -5.07875603 -1.69291868 0 0 Z " fill="#B6754D" transform="translate(279,88)"/>
<path d="M0 0 C3.53372712 1.96318174 6.24479785 4.04070881 9 7 C6.16032769 7 3.76264289 6.59732819 1 6 C0.67 4.02 0.34 2.04 0 0 Z " fill="#AA6C44" transform="translate(215,407)"/>
<path d="M0 0 C1.32 0.66 2.64 1.32 4 2 C-2.435 3.98 -2.435 3.98 -9 6 C-9.33 5.34 -9.66 4.68 -10 4 C-6.5980513 1.90649311 -3.94727588 1.82057837 0 2 C0 1.34 0 0.68 0 0 Z " fill="#9E623F" transform="translate(384,374)"/>
<path d="M0 0 C0.66 0 1.32 0 2 0 C2.77341204 2.78428335 3.17574966 4.47275102 2.25 7.25 C1 9 1 9 -2 10 C-1.34 6.7 -0.68 3.4 0 0 Z " fill="#A36039" transform="translate(245,270)"/>
<path d="M0 0 C4.77576339 0.4682121 8.04476345 1.24331998 12 4 C9.4137465 5.29312675 8.23583025 4.84290464 5.4375 4.25 C4.63183594 4.09015625 3.82617188 3.9303125 2.99609375 3.765625 C2.00802734 3.38664063 2.00802734 3.38664063 1 3 C0.67 2.01 0.34 1.02 0 0 Z " fill="#A6643F" transform="translate(264,189)"/>
<path d="M0 0 C0.33 0 0.66 0 1 0 C1.06058594 1.02480469 1.12117187 2.04960937 1.18359375 3.10546875 C1.26805026 4.46615695 1.35269567 5.82683343 1.4375 7.1875 C1.47681641 7.86103516 1.51613281 8.53457031 1.55664062 9.22851562 C1.78927565 12.89699102 2.17207011 16.41694206 3 20 C2.01 19.67 1.02 19.34 0 19 C0 12.73 0 6.46 0 0 Z " fill="#BD8C67" transform="translate(167,160)"/>
<path d="M0 0 C2.97 0.33 5.94 0.66 9 1 C9 1.99 9 2.98 9 4 C9.639375 4.12375 10.27875 4.2475 10.9375 4.375 C11.618125 4.58125 12.29875 4.7875 13 5 C13.33 5.66 13.66 6.32 14 7 C9.0276578 5.50829734 4.58154261 3.39542583 0 1 C0 0.67 0 0.34 0 0 Z " fill="#B07B50" transform="translate(196,432)"/>
<path d="M0 0 C4.29 0 8.58 0 13 0 C8.60171741 2.1991413 5.81449408 2.51855059 1 3 C0.67 2.01 0.34 1.02 0 0 Z " fill="#A25B30" transform="translate(370,404)"/>
<path d="M0 0 C0 0.66 0 1.32 0 2 C-0.61875 2.0825 -1.2375 2.165 -1.875 2.25 C-2.57625 2.4975 -3.2775 2.745 -4 3 C-4.28875 3.66 -4.5775 4.32 -4.875 5 C-5.24625 5.66 -5.6175 6.32 -6 7 C-9.125 7.75 -9.125 7.75 -12 8 C-4.57142857 0 -4.57142857 0 0 0 Z " fill="#B17751" transform="translate(306,393)"/>
<path d="M0 0 C1.22589844 0.15275391 1.22589844 0.15275391 2.4765625 0.30859375 C3.41628906 0.43427734 3.41628906 0.43427734 4.375 0.5625 C1.36612219 2.14408962 -1.26172037 3.00195339 -4.625 3.5625 C-5.285 2.5725 -5.945 1.5825 -6.625 0.5625 C-4.10446405 -0.69776798 -2.7707902 -0.35624445 0 0 Z " fill="#A85D3E" transform="translate(368.625,379.4375)"/>
<path d="M0 0 C2.31 0.33 4.62 0.66 7 1 C7.33 1.99 7.66 2.98 8 4 C8.99 4 9.98 4 11 4 C11.33 4.99 11.66 5.98 12 7 C7.69235185 5.43358249 3.93828536 3.31663844 0 1 C0 0.67 0 0.34 0 0 Z " fill="#B17A4E" transform="translate(158,283)"/>
<path d="M0 0 C0.66 0.33 1.32 0.66 2 1 C1.2890625 2.953125 1.2890625 2.953125 0 5 C-2.1640625 5.609375 -2.1640625 5.609375 -4.625 5.75 C-5.44226563 5.80671875 -6.25953125 5.8634375 -7.1015625 5.921875 C-7.72804688 5.94765625 -8.35453125 5.9734375 -9 6 C-6.25853216 3.25853216 -3.45087996 1.78706284 0 0 Z " fill="#A86137" transform="translate(324,274)"/>
<path d="M0 0 C3.08089673 2.77280706 4.68775452 5.06326356 6 9 C6.66 9 7.32 9 8 9 C8 9.66 8 10.32 8 11 C6.35 10.67 4.7 10.34 3 10 C3 8.35 3 6.7 3 5 C2.01 4.67 1.02 4.34 0 4 C0 2.68 0 1.36 0 0 Z " fill="#AE7552" transform="translate(177,196)"/>
<path d="M0 0 C0.33 0 0.66 0 1 0 C1 3.63 1 7.26 1 11 C0.34 11 -0.32 11 -1 11 C-1.33 12.32 -1.66 13.64 -2 15 C-2.22577402 9.5814234 -1.46670113 5.22512279 0 0 Z " fill="#B5845C" transform="translate(238,190)"/>
<path d="M0 0 C0.33 0 0.66 0 1 0 C1.31563182 5.26053037 0.66590937 8.44573816 -2 13 C-2.66 13 -3.32 13 -4 13 C-3.27991594 8.39146203 -1.68704061 4.32762591 0 0 Z " fill="#AC714B" transform="translate(324,188)"/>
<path d="M0 0 C-2.6855594 2.6855594 -5.37621328 3.06049974 -9 4 C-9.33 3.01 -9.66 2.02 -10 1 C-3.375 -1.125 -3.375 -1.125 0 0 Z " fill="#A66B44" transform="translate(226,90)"/>
<path d="M0 0 C0.99 0 1.98 0 3 0 C2.67 1.98 2.34 3.96 2 6 C0.68 6.33 -0.64 6.66 -2 7 C-2.125 4.625 -2.125 4.625 -2 2 C-1.34 1.34 -0.68 0.68 0 0 Z " fill="#97582E" transform="translate(58,274)"/>
<path d="M0 0 C0.66 0 1.32 0 2 0 C2 0.66 2 1.32 2 2 C2.66 2.33 3.32 2.66 4 3 C3.67 3.66 3.34 4.32 3 5 C3.99 5.33 4.98 5.66 6 6 C5.67 7.65 5.34 9.3 5 11 C2.03947516 7.63576723 1.07710178 4.30840713 0 0 Z " fill="#AE774E" transform="translate(154,190)"/>
<path d="M0 0 C2.31 0 4.62 0 7 0 C7.66 1.65 8.32 3.3 9 5 C6.03 4.01 3.06 3.02 0 2 C0 1.34 0 0.68 0 0 Z " fill="#AD714F" transform="translate(313,131)"/>
<path d="M0 0 C5.94 1.485 5.94 1.485 12 3 C9 5 9 5 6 4.875 C3 4 3 4 0 0 Z " fill="#B97D5F" transform="translate(119,360)"/>
<path d="M0 0 C5.625 -0.25 5.625 -0.25 9 2 C8.67 2.66 8.34 3.32 8 4 C5.69 3.67 3.38 3.34 1 3 C0.67 2.01 0.34 1.02 0 0 Z " fill="#B27651" transform="translate(407,244)"/>
<path d="M0 0 C3 2 3 2 3.5625 4.5625 C3.706875 5.366875 3.85125 6.17125 4 7 C4.66 7.33 5.32 7.66 6 8 C5.34 8.66 4.68 9.32 4 10 C0 4.5 0 4.5 0 0 Z " fill="#985622" transform="translate(161,201)"/>
<path d="M0 0 C0.66 0.33 1.32 0.66 2 1 C1.01 2.32 0.02 3.64 -1 5 C-3.31 4.67 -5.62 4.34 -8 4 C-7.67 3.34 -7.34 2.68 -7 2 C-5.34385343 1.61781233 -3.67542976 1.28604898 -2 1 C-1.34 0.67 -0.68 0.34 0 0 Z " fill="#9E5020" transform="translate(197,426)"/>
<path d="M0 0 C3.3 0 6.6 0 10 0 C10 0.66 10 1.32 10 2 C10.66 2 11.32 2 12 2 C12 2.66 12 3.32 12 4 C10.5608866 3.71640113 9.12374482 3.42278601 7.6875 3.125 C6.88699219 2.96257812 6.08648437 2.80015625 5.26171875 2.6328125 C3 2 3 2 0 0 Z " fill="#A96D49" transform="translate(137,409)"/>
<path d="M0 0 C0.66 0.99 1.32 1.98 2 3 C1.67 3.99 1.34 4.98 1 6 C-1.31 6.33 -3.62 6.66 -6 7 C-4.02 4.69 -2.04 2.38 0 0 Z " fill="#A65E37" transform="translate(284,304)"/>
<path d="M0 0 C0 0.66 0 1.32 0 2 C-0.99 2 -1.98 2 -3 2 C-3 3.32 -3 4.64 -3 6 C-5.31 6.33 -7.62 6.66 -10 7 C-8.71034824 5.62437146 -7.37310707 4.29233607 -6 3 C-5.34 3 -4.68 3 -4 3 C-4 2.34 -4 1.68 -4 1 C-2 0 -2 0 0 0 Z " fill="#AB6944" transform="translate(313,282)"/>
<path d="M0 0 C1.32 0.66 2.64 1.32 4 2 C2.38007835 2.86375896 0.75388139 3.71575854 -0.875 4.5625 C-2.23238281 5.27599609 -2.23238281 5.27599609 -3.6171875 6.00390625 C-4.40351563 6.33261719 -5.18984375 6.66132813 -6 7 C-6.66 6.67 -7.32 6.34 -8 6 C-7.34 5.34 -6.68 4.68 -6 4 C-5.01 4 -4.02 4 -3 4 C-3 3.34 -3 2.68 -3 2 C-2.01 1.34 -1.02 0.68 0 0 Z " fill="#B7805D" transform="translate(306,428)"/>
<path d="M0 0 C-0.33 0.66 -0.66 1.32 -1 2 C-7.99641577 3.37634409 -7.99641577 3.37634409 -11.5 2.0625 C-11.995 1.711875 -12.49 1.36125 -13 1 C-8.60563789 0.14256349 -4.47427924 -0.08948558 0 0 Z " fill="#A46035" transform="translate(418,381)"/>
<path d="M0 0 C-1 1.5 -1 1.5 -3 3 C-5.71846235 3.27345479 -8.25677199 3.13491285 -11 3 C-3.71428571 -1.85714286 -3.71428571 -1.85714286 0 0 Z " fill="#B57950" transform="translate(370,365)"/>
<path d="M0 0 C1.32 0.33 2.64 0.66 4 1 C2.625 3.5 2.625 3.5 1 6 C0.34 6 -0.32 6 -1 6 C-1.33 6.66 -1.66 7.32 -2 8 C-2.66 7.01 -3.32 6.02 -4 5 C-2.68 5 -1.36 5 0 5 C0 3.35 0 1.7 0 0 Z " fill="#AC6F45" transform="translate(272,339)"/>
<path d="M0 0 C2.31 0 4.62 0 7 0 C1.85714286 4.42857143 1.85714286 4.42857143 -2 5 C-1.34 3.35 -0.68 1.7 0 0 Z " fill="#AC6C3D" transform="translate(332,285)"/>
<path d="M0 0 C0.33 0.66 0.66 1.32 1 2 C1.66 2.33 2.32 2.66 3 3 C1.68 3.33 0.36 3.66 -1 4 C-1.33 5.32 -1.66 6.64 -2 8 C-3.32 7.67 -4.64 7.34 -6 7 C-5.67 6.34 -5.34 5.68 -5 5 C-4.34 5 -3.68 5 -3 5 C-2.5359375 4.0409375 -2.5359375 4.0409375 -2.0625 3.0625 C-1 1 -1 1 0 0 Z " fill="#B7825C" transform="translate(259,157)"/>
<path d="M0 0 C0.66 0.33 1.32 0.66 2 1 C1.67 1.66 1.34 2.32 1 3 C0.34 3 -0.32 3 -1 3 C-1 4.32 -1 5.64 -1 7 C-2.65 7.33 -4.3 7.66 -6 8 C-4.55746343 4.63408134 -2.66735273 2.48952921 0 0 Z " fill="#C08E62" transform="translate(271,145)"/>
<path d="M0 0 C0.66 0 1.32 0 2 0 C1.67 1.65 1.34 3.3 1 5 C-0.98 5.33 -2.96 5.66 -5 6 C-3.38405168 3.95880212 -1.7143618 1.95927063 0 0 Z " fill="#AB623A" transform="translate(288,128)"/>
<path d="M0 0 C3.93673644 1.31224548 6.22719294 2.91910327 9 6 C2.35384615 4.52307692 2.35384615 4.52307692 0.5625 1.875 C0.376875 1.25625 0.19125 0.6375 0 0 Z " fill="#A56E44" transform="translate(285,75)"/>
<path d="M0 0 C-0.33 0.66 -0.66 1.32 -1 2 C-4.375 2.75 -4.375 2.75 -8 3 C-8.99 2.34 -9.98 1.68 -11 1 C-7.32589215 -0.17571451 -3.83070817 -0.07366746 0 0 Z " fill="#A66642" transform="translate(257,459)"/>
<path d="M0 0 C0.66 0.99 1.32 1.98 2 3 C-1.96 4.98 -1.96 4.98 -6 7 C-6.33 6.01 -6.66 5.02 -7 4 C-5.824375 3.566875 -5.824375 3.566875 -4.625 3.125 C-1.90328368 2.15087746 -1.90328368 2.15087746 0 0 Z " fill="#A65E2D" transform="translate(320,400)"/>
<path d="M0 0 C0.66 0.33 1.32 0.66 2 1 C0.35 2.65 -1.3 4.3 -3 6 C-4.32 5.34 -5.64 4.68 -7 4 C-5.35 3.67 -3.7 3.34 -2 3 C-2 2.34 -2 1.68 -2 1 C-1.34 0.67 -0.68 0.34 0 0 Z " fill="#A5683C" transform="translate(251,300)"/>
<path d="M0 0 C0.66 0 1.32 0 2 0 C1.35499066 3.48305042 -0.04134776 6.06202164 -2 9 C-2.33 9 -2.66 9 -3 9 C-3 7.35 -3 5.7 -3 4 C-2.01 3.67 -1.02 3.34 0 3 C0 2.01 0 1.02 0 0 Z " fill="#A87244" transform="translate(330,213)"/>
<path d="M0 0 C-1.32 0.33 -2.64 0.66 -4 1 C-4 1.66 -4 2.32 -4 3 C-6.64 3 -9.28 3 -12 3 C-8.48214012 -0.51785988 -4.80656342 -0.10924008 0 0 Z " fill="#96582A" transform="translate(240,94)"/>
<path d="M0 0 C0.66 0.33 1.32 0.66 2 1 C2 1.66 2 2.32 2 3 C-2.95 4.485 -2.95 4.485 -8 6 C-5.54080489 3.3651481 -3.42227589 1.25483449 0 0 Z " fill="#CF7E44" transform="translate(306,411)"/>
<path d="M0 0 C1.45742463 -0.08096803 2.91612807 -0.13917774 4.375 -0.1875 C5.18710938 -0.22230469 5.99921875 -0.25710938 6.8359375 -0.29296875 C7.55007812 -0.19628906 8.26421875 -0.09960938 9 0 C9.66 0.99 10.32 1.98 11 3 C9 4 9 4 6.8359375 3.44140625 C6.02382812 3.15136719 5.21171875 2.86132812 4.375 2.5625 C3.55773437 2.27503906 2.74046875 1.98757813 1.8984375 1.69140625 C1.27195313 1.46324219 0.64546875 1.23507812 0 1 C0 0.67 0 0.34 0 0 Z " fill="#A86A37" transform="translate(132,272)"/>
<path d="M0 0 C1.65 0.33 3.3 0.66 5 1 C2.14693203 3.32472205 -0.54074837 4.7508258 -4 6 C-4 5.01 -4 4.02 -4 3 C-2.68 3 -1.36 3 0 3 C0 2.01 0 1.02 0 0 Z " fill="#AB734C" transform="translate(273,271)"/>
<path d="M0 0 C0.33 0 0.66 0 1 0 C1.08159574 4.16138263 0.98248524 7.9472484 0 12 C-0.99 11.34 -1.98 10.68 -3 10 C-2.01 6.7 -1.02 3.4 0 0 Z " fill="#98491F" transform="translate(347,166)"/>
<path d="M0 0 C0.66 0.33 1.32 0.66 2 1 C0.75 3.5 0.75 3.5 -1 6 C-2.32 6 -3.64 6 -5 6 C-5 5.34 -5 4.68 -5 4 C-4.34 4 -3.68 4 -3 4 C-3 3.34 -3 2.68 -3 2 C-2.01 1.34 -1.02 0.68 0 0 Z " fill="#B57557" transform="translate(204,78)"/>
<path d="M0 0 C-0.33 0.66 -0.66 1.32 -1 2 C-3.97 2 -6.94 2 -10 2 C-3.75 -1.125 -3.75 -1.125 0 0 Z " fill="#9D5F3A" transform="translate(362,394)"/>
<path d="M0 0 C2.875 -0.125 2.875 -0.125 6 0 C6.66 0.66 7.32 1.32 8 2 C7.34 2 6.68 2 6 2 C6 2.66 6 3.32 6 4 C4.02 3.34 2.04 2.68 0 2 C0 1.34 0 0.68 0 0 Z " fill="#A25B2D" transform="translate(78,380)"/>
<path d="M0 0 C0.99 0.33 1.98 0.66 3 1 C2.01 1.99 1.02 2.98 0 4 C0 2.68 0 1.36 0 0 Z M-3 4 C-2.01 4.33 -1.02 4.66 0 5 C-0.99 5.66 -1.98 6.32 -3 7 C-3.99 6.67 -4.98 6.34 -6 6 C-5.01 5.34 -4.02 4.68 -3 4 Z " fill="#8B3E0A" transform="translate(276,314)"/>
<path d="M0 0 C2.475 0.99 2.475 0.99 5 2 C5 2.66 5 3.32 5 4 C5.99 4.33 6.98 4.66 8 5 C7.01 5.495 7.01 5.495 6 6 C3.96855359 5.06553465 1.96466413 4.06775224 0 3 C0 2.01 0 1.02 0 0 Z " fill="#A9734F" transform="translate(200,291)"/>
<path d="M0 0 C1.98 0 3.96 0 6 0 C3.63707344 2.52588702 2.33537489 3.88820837 -1 5 C-0.67 3.35 -0.34 1.7 0 0 Z " fill="#9B5E38" transform="translate(285,263)"/>
<path d="M0 0 C0.33 0 0.66 0 1 0 C1 1.98 1 3.96 1 6 C0.34 6 -0.32 6 -1 6 C-1 6.66 -1 7.32 -1 8 C-1.66 8 -2.32 8 -3 8 C-2.37240135 5.07120629 -1.41377341 2.63904371 0 0 Z " fill="#AF7A54" transform="translate(245,175)"/>
<path d="M0 0 C-1.29299694 2.88437779 -2.65941363 4.87219421 -5 7 C-5.6875 5.1875 -5.6875 5.1875 -6 3 C-4.04862098 0.26806937 -3.44686768 0 0 0 Z " fill="#9F5F39" transform="translate(182,130)"/>
<path d="M0 0 C0 0.66 0 1.32 0 2 C-0.99 2 -1.98 2 -3 2 C-3.33 2.99 -3.66 3.98 -4 5 C-4.33 4.34 -4.66 3.68 -5 3 C-7.02463255 2.34786708 -7.02463255 2.34786708 -9 2 C-2.25 0 -2.25 0 0 0 Z " fill="#A16038" transform="translate(334,402)"/>
<path d="M0 0 C-1.65 0.33 -3.3 0.66 -5 1 C-5.33 1.99 -5.66 2.98 -6 4 C-6.99 3.67 -7.98 3.34 -9 3 C-9 2.34 -9 1.68 -9 1 C-2.25 -1.125 -2.25 -1.125 0 0 Z " fill="#A15F3A" transform="translate(372,391)"/>
<path d="M0 0 C0.33 0.99 0.66 1.98 1 3 C-0.65 3 -2.3 3 -4 3 C-4 2.34 -4 1.68 -4 1 C-4.99 0.67 -5.98 0.34 -7 0 C-2.25 -1.125 -2.25 -1.125 0 0 Z " fill="#A75935" transform="translate(379,389)"/>
<path d="M0 0 C2.35171131 0.59861742 4.6859378 1.26924352 7 2 C7.33 2.66 7.66 3.32 8 4 C5.69 4 3.38 4 1 4 C0.67 2.68 0.34 1.36 0 0 Z " fill="#B26E47" transform="translate(151,371)"/>
<path d="M0 0 C2.875 -0.125 2.875 -0.125 6 0 C6.66 0.66 7.32 1.32 8 2 C7.34 2 6.68 2 6 2 C5.67 2.66 5.34 3.32 5 4 C2.525 3.01 2.525 3.01 0 2 C0 1.34 0 0.68 0 0 Z " fill="#9E552B" transform="translate(100,356)"/>
<path d="M0 0 C1.98 0.99 1.98 0.99 4 2 C4 3.32 4 4.64 4 6 C3.34 6 2.68 6 2 6 C1.34 4.02 0.68 2.04 0 0 Z " fill="#A5693A" transform="translate(227,297)"/>
<path d="M0 0 C2.97 0.495 2.97 0.495 6 1 C6 2.32 6 3.64 6 5 C3.98079663 3.69593116 1.98075027 2.36176581 0 1 C0 0.67 0 0.34 0 0 Z " fill="#AC6943" transform="translate(178,295)"/>
<path d="M0 0 C0.99 0 1.98 0 3 0 C1.90931332 3.77545388 1.0916909 6.47043472 -2 9 C-2 7.68 -2 6.36 -2 5 C-1.34 5 -0.68 5 0 5 C0 3.35 0 1.7 0 0 Z " fill="#BF8D69" transform="translate(259,286)"/>
<path d="M0 0 C7.42857143 -0.28571429 7.42857143 -0.28571429 11 2 C8.08931154 3.45534423 6.1172005 2.69977971 3 2 C2.01 1.34 1.02 0.68 0 0 Z " fill="#A36B4A" transform="translate(432,273)"/>
<path d="M0 0 C3.96 1.98 3.96 1.98 8 4 C8 4.33 8 4.66 8 5 C6.35 5 4.7 5 3 5 C2.67 4.01 2.34 3.02 2 2 C1.34 2 0.68 2 0 2 C0 1.34 0 0.68 0 0 Z " fill="#A96F3F" transform="translate(167,269)"/>
<path d="M0 0 C3.625 0.375 3.625 0.375 7 1 C7 1.66 7 2.32 7 3 C4.03 2.67 1.06 2.34 -2 2 C-1.34 1.34 -0.68 0.68 0 0 Z " fill="#985620" transform="translate(129,269)"/>
<path d="M0 0 C2.97 0 5.94 0 9 0 C5.71299843 1.64350079 3.52069985 2.41321669 0 3 C0 2.01 0 1.02 0 0 Z " fill="#A3633C" transform="translate(371,268)"/>
<path d="M0 0 C6.75 0.875 6.75 0.875 9 2 C9 2.66 9 3.32 9 4 C7.35 4 5.7 4 4 4 C3.67 3.34 3.34 2.68 3 2 C2.01 1.34 1.02 0.68 0 0 Z " fill="#A54B1D" transform="translate(375,252)"/>
<path d="M0 0 C1.2065625 0.0309375 1.2065625 0.0309375 2.4375 0.0625 C1.4475 1.5475 1.4475 1.5475 0.4375 3.0625 C-0.2225 3.0625 -0.8825 3.0625 -1.5625 3.0625 C-1.8925 3.7225 -2.2225 4.3825 -2.5625 5.0625 C-3.125 3.125 -3.125 3.125 -3.5625 1.0625 C-2.5625 0.0625 -2.5625 0.0625 0 0 Z " fill="#A46134" transform="translate(302.5625,250.9375)"/>
<path d="M0 0 C1.125 3.75 1.125 3.75 0 6 C-2.0625 6.625 -2.0625 6.625 -4 7 C-2.92598892 4.08482708 -2.22189824 2.22189824 0 0 Z " fill="#AE7954" transform="translate(250,168)"/>
<path d="M0 0 C-2.98646769 1.99097846 -5.59687262 2.94124926 -9 4 C-6.35287314 0.09233654 -4.86783735 -1.62261245 0 0 Z " fill="#B27C5C" transform="translate(204,119)"/>
<path d="M0 0 C0.33 0.66 0.66 1.32 1 2 C-1 5 -1 5 -3.625 5.6875 C-4.800625 5.8421875 -4.800625 5.8421875 -6 6 C-2.25 1.125 -2.25 1.125 0 0 Z " fill="#9C592E" transform="translate(225,56)"/>
</svg>
